<?xml version="1.0" standalone="no"?>
<!DOCTYPE svg PUBLIC "-//W3C//DTD SVG 20010904//EN"
 "http://www.w3.org/TR/2001/REC-SVG-20010904/DTD/svg10.dtd">
<svg version="1.0" xmlns="http://www.w3.org/2000/svg"
 width="1280.000000pt" height="1280.000000pt" viewBox="0 0 1280.000000 1280.000000"
 preserveAspectRatio="xMidYMid meet">
<metadata>
Created by potrace 1.15, written by Peter Selinger 2001-2017
</metadata>
<g transform="translate(0.000000,1280.000000) scale(0.100000,-0.100000)"
fill="#000000" stroke="none">
<path d="M6070 11734 c-802 -70 -1418 -237 -2075 -564 -1006 -501 -1810 -1270
-2356 -2256 -960 -1730 -878 -3879 209 -5544 216 -331 411 -570 706 -866 291
-291 550 -504 846 -696 754 -488 1518 -756 2440 -855 233 -25 768 -25 1005 0
608 65 1123 198 1650 427 812 354 1555 933 2108 1643 559 719 927 1552 1082
2449 60 350 69 479 70 938 0 382 -3 444 -23 614 -53 429 -127 764 -257 1152
-301 900 -858 1744 -1505 2284 -790 658 -1712 1073 -2720 1224 -264 40 -386
48 -760 51 -206 1 -395 1 -420 -1z m617 -4449 c110 -28 256 -95 339 -155 293
-212 455 -570 415 -915 -27 -239 -119 -432 -286 -601 -213 -217 -494 -317
-812 -292 -484 39 -876 437 -909 926 -46 679 590 1205 1253 1037z"/>
</g>
</svg>
